<?xml version="1.0" encoding="utf-8"?>
<!-- Generator: Adobe Illustrator 15.1.0, SVG Export Plug-In . SVG Version: 6.00 Build 0)  -->
<!DOCTYPE svg PUBLIC "-//W3C//DTD SVG 1.1//EN" "http://www.w3.org/Graphics/SVG/1.1/DTD/svg11.dtd">
<svg version="1.1" id="Layer_1" xmlns="http://www.w3.org/2000/svg" xmlns:xlink="http://www.w3.org/1999/xlink" x="0px" y="0px"
	 width="46px" height="46px" viewBox="0 0 46 46" enable-background="new 0 0 46 46" xml:space="preserve">
<path d="M329.162,161.847c-1.951,0.866-4.049,1.451-6.248,1.713c2.246-1.347,3.973-3.477,4.783-6.018
	c-2.1,1.247-4.427,2.153-6.906,2.641c-1.986-2.116-4.814-3.437-7.943-3.437c-6.008,0-10.879,4.872-10.879,10.879
	c0,0.854,0.096,1.683,0.281,2.478c-9.041-0.452-17.055-4.782-22.423-11.367c-0.935,1.609-1.472,3.477-1.472,5.471
	c0,3.773,1.919,7.105,4.837,9.054c-1.782-0.055-3.459-0.547-4.926-1.361v0.137c0,5.27,3.751,9.667,8.726,10.667
	c-0.912,0.248-1.875,0.384-2.866,0.384c-0.7,0-1.383-0.07-2.046-0.198c1.384,4.323,5.401,7.467,10.161,7.558
	c-3.721,2.917-8.411,4.657-13.512,4.657c-0.876,0-1.742-0.054-2.593-0.153c4.814,3.084,10.532,4.886,16.679,4.886
	c20.009,0,30.951-16.574,30.951-30.952c0-0.47-0.012-0.939-0.03-1.409C325.857,165.946,327.701,164.03,329.162,161.847z"/>
<g>
	<path d="M23.226,13.027c2.253,0,4.341,0.719,6.049,1.936h8.212h7.532v-3.066c0-6.068-4.937-11.005-11.005-11.005H11.987
		c-6.068,0-11.005,4.937-11.005,11.005v3.066h16.194C18.885,13.746,20.972,13.027,23.226,13.027z M32.246,7.58
		c0-0.673,0.55-1.223,1.223-1.223h3.778c0.673,0,1.223,0.55,1.223,1.223v3.778c0,0.673-0.55,1.223-1.223,1.223h-3.778
		c-0.672,0-1.223-0.55-1.223-1.223V7.58z"/>
	<path d="M33.68,23.48c0,5.765-4.69,10.454-10.454,10.454c-5.765,0-10.454-4.689-10.454-10.454c0-1.587,0.357-3.092,0.993-4.441
		H0.981v15.064c0,6.068,4.937,11.005,11.005,11.005h22.026c6.068,0,11.005-4.937,11.005-11.005V19.039H32.687
		C33.322,20.389,33.68,21.894,33.68,23.48z"/>
</g>
</svg>
