<?xml version="1.0" encoding="utf-8"?>
<!-- Generator: Adobe Illustrator 15.1.0, SVG Export Plug-In . SVG Version: 6.00 Build 0)  -->
<!DOCTYPE svg PUBLIC "-//W3C//DTD SVG 1.1//EN" "http://www.w3.org/Graphics/SVG/1.1/DTD/svg11.dtd">
<svg version="1.1" xmlns="http://www.w3.org/2000/svg" xmlns:xlink="http://www.w3.org/1999/xlink" x="0px" y="0px" width="67px"
	 height="127px" viewBox="0 0 67 127" enable-background="new 0 0 67 127" xml:space="preserve">
<g id="Layer_1" display="none">
	
		<image display="inline" overflow="visible" opacity="0.53" width="800" height="600" xlink:href="../../../../R_pin_spring_cotter_pin.jpg"  transform="matrix(1 0 0 1 -4 -479)">
	</image>
</g>
<g id="Layer_2" display="none">
	<path display="inline" opacity="0.35" stroke="#FFFFFF" stroke-miterlimit="10" d="M388,89h-21.333v-334.667
		c0,0-0.417-104.083,1.083-120.083S385.5-422,437.5-422s67.25,47.75,68.75,61.25c0.911,8.2,9.75,33.5-7.75,53.5
		c-17.694,20.222-51.5,34-68.25,53c-16.069,18.228,23.5,34,42.5,65s25.25,64.25-4.5,95s-61.75,44.75-39.5,73S451,7,451,7
		l-16.5,11.75c0,0-31.5-36.5-35-58.25S419.75-79,436-92s37-26.5,32-54s-33.5-54.5-45.25-68.25S388.75-251,420-275s77-47,67.25-85.5
		s-45.5-49.25-72.25-37.25s-27,45.25-27,78.25c0,33.185,0.75,103.25,0.75,114.75S388,89,388,89z"/>
</g>
<g id="Layer_3" display="none">
	<path display="inline" fill="none" stroke="#000000" stroke-width="30" stroke-miterlimit="10" d="M207.5,88.5c0,0,0-292.5,0-391.5
		c0-30.698-6.667-111.333,61.833-111.333S331.838-340.873,315.5-318c-17.5,24.5-71,37.919-71,76.5c0,27,57.5,64.497,57.5,102
		c0,31.5-65,61.435-65,89.833c0,30,36.5,60.167,36.5,60.167"/>
</g>
<g id="Layer_4">
	<path stroke="#000000" stroke-miterlimit="10" d="M16,115.244V30.952c0,0-0.31-23.177,16.21-23.177
		c12.451,0,17.211,8.847,17.211,17.176c0,10.451-16.348,15.934-16.348,22.073c0,6.142,10.657,12.037,10.657,21.073
		c0,9.037-12.106,13.073-12.106,18.659c0,5.588,5.897,10.416,5.897,10.416l-4.552,4.208c0,0-7.795-6.761-7.795-14.624
		c0-7.771,12.244-12.691,12.244-18.763c0-6.068-11.141-14.142-11.141-20.899c0-9.521,16.625-14.487,16.625-23.385
		c0-4.655-2.966-9.796-10.692-9.796c-7.725,0-10.07,7.934-10.07,16.97c0,9.035,0,84.361,0,84.361L16,115.244z"/>
</g>
</svg>
