<?xml version="1.0" encoding="utf-8"?>
<!-- Generator: Adobe Illustrator 15.1.0, SVG Export Plug-In . SVG Version: 6.00 Build 0)  -->
<!DOCTYPE svg PUBLIC "-//W3C//DTD SVG 1.1//EN" "http://www.w3.org/Graphics/SVG/1.1/DTD/svg11.dtd">
<svg version="1.1" id="Layer_1" xmlns="http://www.w3.org/2000/svg" xmlns:xlink="http://www.w3.org/1999/xlink" x="0px" y="0px"
	 width="100px" height="95px" viewBox="0 0 100 95" enable-background="new 0 0 100 95" xml:space="preserve">
<g id="Layer_1_1_" display="none">
</g>
<g id="Layer_2" display="none">
	<path display="inline" opacity="0.35" stroke="#FFFFFF" stroke-miterlimit="10" enable-background="new    " d="M315.177,66.574
		h-15.958v-250.341c0,0-0.312-77.857,0.811-89.826c1.122-11.968,13.277-42.077,52.176-42.077c38.897,0,50.305,35.719,51.427,45.817
		c0.682,6.134,7.293,25.059-5.797,40.02c-13.236,15.126-38.524,25.433-51.054,39.646c-12.02,13.635,17.579,25.433,31.792,48.622
		c14.212,23.189,18.888,48.061-3.366,71.063s-46.191,33.475-29.548,54.606s16.644,21.132,16.644,21.132l-12.342,8.789
		c0,0-23.563-27.303-26.182-43.573c-2.618-16.27,15.147-29.547,27.304-39.271c12.155-9.725,27.677-19.823,23.937-40.394
		s-25.059-40.768-33.849-51.053c-8.789-10.286-25.433-27.49-2.057-45.443c23.376-17.953,57.599-35.158,50.305-63.957
		c-7.293-28.8-34.035-36.841-54.045-27.864c-20.01,8.976-20.197,33.848-20.197,58.533c0,24.823,0.562,77.234,0.562,85.837
		C315.738-144.557,315.177,66.574,315.177,66.574z"/>
</g>
<g id="Layer_3" display="none">
	<path display="inline" fill="none" stroke="#000000" stroke-width="30" stroke-miterlimit="10" d="M180.158,66.201
		c0,0,0-218.8,0-292.854c0-22.963-4.988-83.281,46.252-83.281s46.756,54.95,34.535,72.06
		c-13.091,18.327-53.111,28.365-53.111,57.225c0,20.197,43.013,48.246,43.013,76.299c0,23.563-48.622,45.956-48.622,67.198
		c0,22.441,27.303,45.007,27.303,45.007"/>
</g>
<g id="Layer_4" display="none">
	<path display="inline" stroke="#000000" stroke-miterlimit="10" d="M36.91,86.206V23.153c0,0-0.232-17.337,12.125-17.337
		c9.313,0,12.874,6.618,12.874,12.848c0,7.818-12.229,11.919-12.229,16.511c0,4.595,7.972,9.004,7.972,15.763
		c0,6.761-9.056,9.779-9.056,13.958c0,4.18,4.411,7.791,4.411,7.791l-3.405,3.148c0,0-5.831-5.059-5.831-10.939
		c0-5.813,9.159-9.494,9.159-14.035c0-4.54-8.333-10.579-8.333-15.634c0-7.122,12.436-10.836,12.436-17.493
		c0-3.482-2.219-7.328-7.998-7.328c-5.779,0-7.533,5.935-7.533,12.694c0,6.758,0,63.104,0,63.104H36.91z"/>
</g>
<g id="Layer_4_1_">
	<path stroke="#000000" stroke-miterlimit="10" d="M36.756,84.354V22.657c0,0-0.227-16.964,11.865-16.964
		c9.113,0,12.598,6.475,12.598,12.572c0,7.65-11.966,11.663-11.966,16.157c0,4.495,7.8,8.811,7.8,15.424
		c0,6.614-8.86,9.568-8.86,13.657c0,4.09,4.204,7.811,4.204,7.811s1.443,1.578,0.096,2.928c-1.506,1.506-3.315-0.034-3.315-0.034
		s-5.706-4.948-5.706-10.704c0-5.688,8.962-9.289,8.962-13.734c0-4.442-8.154-10.351-8.154-15.296
		c0-6.969,12.169-10.604,12.169-17.117c0-3.407-2.172-7.17-7.826-7.17c-5.655,0-7.371,5.808-7.371,12.421c0,6.613,0,61.748,0,61.748
		s-0.056,2.283-2.297,2.283C36.639,86.638,36.756,84.354,36.756,84.354z"/>
</g>
</svg>
