<?xml version="1.0" encoding="utf-8"?>
<!-- Generator: Adobe Illustrator 15.1.0, SVG Export Plug-In . SVG Version: 6.00 Build 0)  -->
<!DOCTYPE svg PUBLIC "-//W3C//DTD SVG 1.1//EN" "http://www.w3.org/Graphics/SVG/1.1/DTD/svg11.dtd">
<svg version="1.1" id="Layer_1" xmlns="http://www.w3.org/2000/svg" xmlns:xlink="http://www.w3.org/1999/xlink" x="0px" y="0px"
	 width="100%" height="100%" viewBox="0 0 48.5 101.75" enable-background="new 0 0 48.5 101.75" xml:space="preserve">
<path stroke="#000000" stroke-miterlimit="10" d="M15.558,95.709c0,0,0.099-45.831,0.099-61.037c0-0.737,0.077-1.793-0.914-2.784
	c-0.99-0.991-8.221-7.63-8.221-14.082c0-7.041,6.116-11.939,11.952-11.939s11.624,4.899,11.624,11.297
	c0,7.095-3.209,7.095-3.209,11.565c0,4.766,8.354,11.511,8.354,20.399c0,8.889-5.943,12.368-5.943,16.544s13.279,19.65,13.279,19.65
	l-4.016,3.427c0,0-14.67-16.24-14.67-23.077c0-6.357,6.211-11.578,6.211-16.544c0-4.443-8.406-15.593-8.406-20.131
	c0-4.604,3.105-7.174,3.105-11.618s-3.587-6.398-6.398-6.398c-2.811,0-6.505,1.994-6.505,6.344c0,4.364,4.222,8.487,5.906,10.334
	c1.927,2.115,2.693,3.694,2.693,5.354s0,62.684,0,62.684L15.558,95.709z"/>
</svg>
