<?xml version="1.0" encoding="utf-8"?>
<!-- Generator: Adobe Illustrator 15.1.0, SVG Export Plug-In . SVG Version: 6.00 Build 0)  -->
<!DOCTYPE svg PUBLIC "-//W3C//DTD SVG 1.1//EN" "http://www.w3.org/Graphics/SVG/1.1/DTD/svg11.dtd">
<svg version="1.1" id="Layer_2" xmlns="http://www.w3.org/2000/svg" xmlns:xlink="http://www.w3.org/1999/xlink" x="0px" y="0px"
	 width="1184px" height="994px" viewBox="-669 -162.5 1184 994" enable-background="new -669 -162.5 1184 994" xml:space="preserve"
	>
<path d="M133.337,179.268c-63.742-14.959-133.333,6.269-177.415,60.478c-35.114,43.181-46.411,97.941-35.596,148.433
	c-22.233,21.491-38.295,59.551-38.295,59.551s27.944,21.928,62.938,37.808c26.568,12.059,70.018,36.406,116.973,39.36
	c61.052,10.81,125.987-10.899,167.882-62.419c29.325-36.063,42.025-80.198,39.132-123.181c14.208-4.372,28.184-8.378,39.395-12.675
	c33.6-12.878,41.634-61.324,41.634-61.324s59.518-266.761,64.02-290.784c4.49-24.025-14.644-32.092-14.644-32.092L271.833,143.319
	l-68.786-34.64l127.287-219.027c0,0-11.885-6.857-23.388-1.487C284.891-101.542,125.708,56.913,110.885,86.724
	C99.027,110.563,132.888,142.17,133.337,179.268z"/>
</svg>
