<?xml version="1.0" encoding="utf-8"?>
<!-- Generator: Adobe Illustrator 15.1.0, SVG Export Plug-In . SVG Version: 6.00 Build 0)  -->
<!DOCTYPE svg PUBLIC "-//W3C//DTD SVG 1.1//EN" "http://www.w3.org/Graphics/SVG/1.1/DTD/svg11.dtd">
<svg version="1.1" id="Layer_2" xmlns="http://www.w3.org/2000/svg" xmlns:xlink="http://www.w3.org/1999/xlink" x="0px" y="0px"
	 width="317px" height="618px" viewBox="0 0 317 618" enable-background="new 0 0 317 618" xml:space="preserve">
<path d="M91.984,298.159c-47.346,23-79.985,71.538-79.985,127.709c0,44.744,20.729,84.63,53.084,110.638
	c-2.967,24.682,6.319,56.567,6.319,56.567s28.552-0.496,58.433-8.341c22.688-5.954,62.138-12.805,92.925-34.779
	c43.563-24.224,73.055-70.7,73.055-124.085c0-37.368-14.465-71.339-38.072-96.681c6.646-9.933,13.33-19.52,18.143-27.886
	c14.427-25.075-5.135-59.368-5.135-59.368S172.571,45.356,163.193,28.089c-9.385-17.263-25.411-12.59-25.411-12.59l22.353,189.991
	l-60.474,13.283L67.962,17.596c0,0-10.891,1.751-15.342,10.935c-8.537,17.607-27.455,197.181-21.58,223.293
	C35.736,272.708,72.887,275.248,91.984,298.159z"/>
</svg>
