<?xml version="1.0" encoding="utf-8"?>
<!-- Generator: Adobe Illustrator 15.1.0, SVG Export Plug-In . SVG Version: 6.00 Build 0)  -->
<!DOCTYPE svg PUBLIC "-//W3C//DTD SVG 1.1//EN" "http://www.w3.org/Graphics/SVG/1.1/DTD/svg11.dtd">
<svg version="1.1" id="Layer_1" xmlns="http://www.w3.org/2000/svg" xmlns:xlink="http://www.w3.org/1999/xlink" x="0px" y="0px"
	 width="608px" height="81px" viewBox="0 0 608 81" enable-background="new 0 0 608 81" xml:space="preserve">
<g>
	<path fill="#C1D4E0" d="M32.944,61.264h0.144l17.784-48.672h3.168L34.816,64h-3.672L11.992,12.592h3.312L32.944,61.264z"/>
	<path fill="#C1D4E0" d="M71.896,61.264h0.144l17.784-48.672h3.168L73.768,64h-3.672L50.944,12.592h3.312L71.896,61.264z"/>
	<path fill="#C1D4E0" d="M110.848,61.264h0.144l17.784-48.672h3.168L112.72,64h-3.672L89.896,12.592h3.312L110.848,61.264z"/>
	<path fill="#C1D4E0" d="M149.8,61.264h0.144l17.784-48.672h3.168L151.672,64H148l-19.152-51.408h3.312L149.8,61.264z"/>
	<path fill="#C1D4E0" d="M188.752,61.264h0.144l17.784-48.672h3.168L190.624,64h-3.672L167.8,12.592h3.312L188.752,61.264z"/>
	<path fill="#C1D4E0" d="M227.704,61.264h0.144l17.784-48.672h3.168L229.576,64h-3.672l-19.152-51.408h3.312L227.704,61.264z"/>
	<path fill="#C1D4E0" d="M266.656,61.264h0.144l17.784-48.672h3.168L268.528,64h-3.672l-19.152-51.408h3.312L266.656,61.264z"/>
	<path fill="#C1D4E0" d="M305.608,61.264h0.144l17.784-48.672h3.168L307.48,64h-3.672l-19.152-51.408h3.312L305.608,61.264z"/>
	<path fill="#C1D4E0" d="M344.56,61.264h0.144l17.785-48.672h3.168L346.432,64h-3.672l-19.152-51.408h3.312L344.56,61.264z"/>
	<path fill="#C1D4E0" d="M383.512,61.264h0.145l17.783-48.672h3.168L385.384,64h-3.672l-19.151-51.408h3.312L383.512,61.264z"/>
	<path fill="#C1D4E0" d="M422.464,61.264h0.144l17.785-48.672h3.168L424.336,64h-3.672l-19.152-51.408h3.312L422.464,61.264z"/>
	<path fill="#C1D4E0" d="M461.416,61.264h0.144l17.784-48.672h3.168L463.287,64h-3.672l-19.151-51.408h3.312L461.416,61.264z"/>
	<path fill="#C1D4E0" d="M500.367,61.264h0.145l17.784-48.672h3.168L502.24,64h-3.672l-19.152-51.408h3.312L500.367,61.264z"/>
	<path fill="#C1D4E0" d="M539.32,61.264h0.144l17.784-48.672h3.168L541.191,64h-3.672l-19.151-51.408h3.312L539.32,61.264z"/>
	<path fill="#C1D4E0" d="M578.271,61.264h0.145l17.783-48.672h3.168L580.145,64h-3.674l-19.15-51.408h3.312L578.271,61.264z"/>
</g>
</svg>
