<?xml version="1.0" encoding="utf-8"?>
<!-- Generator: Adobe Illustrator 15.1.0, SVG Export Plug-In . SVG Version: 6.00 Build 0)  -->
<!DOCTYPE svg PUBLIC "-//W3C//DTD SVG 1.1//EN" "http://www.w3.org/Graphics/SVG/1.1/DTD/svg11.dtd">
<svg version="1.1" id="Layer_1" xmlns="http://www.w3.org/2000/svg" xmlns:xlink="http://www.w3.org/1999/xlink" x="0px" y="0px"
	 width="136.454px" height="59.606px" viewBox="0 0 136.454 59.606" enable-background="new 0 0 136.454 59.606"
	 xml:space="preserve">
<g>
	<path d="M15.903,42.594c0.624,1.2,1.451,2.172,2.484,2.916c1.032,0.744,2.244,1.296,3.636,1.656
		c1.392,0.359,2.832,0.539,4.32,0.539c1.008,0,2.088-0.082,3.24-0.252c1.152-0.167,2.232-0.491,3.24-0.972
		c1.008-0.479,1.848-1.14,2.52-1.979c0.672-0.84,1.008-1.908,1.008-3.204c0-1.392-0.444-2.52-1.332-3.384
		c-0.889-0.864-2.052-1.584-3.492-2.16c-1.44-0.576-3.072-1.08-4.896-1.512c-1.825-0.432-3.672-0.911-5.544-1.44
		c-1.92-0.479-3.792-1.068-5.616-1.764c-1.825-0.695-3.456-1.595-4.896-2.7c-1.44-1.104-2.604-2.484-3.492-4.14
		c-0.889-1.656-1.332-3.66-1.332-6.012c0-2.639,0.563-4.932,1.692-6.876c1.127-1.944,2.604-3.564,4.428-4.86
		c1.823-1.296,3.888-2.256,6.192-2.88c2.304-0.624,4.608-0.936,6.912-0.936c2.688,0,5.267,0.3,7.74,0.9
		c2.472,0.601,4.667,1.573,6.588,2.916c1.919,1.344,3.444,3.06,4.572,5.148c1.127,2.088,1.692,4.62,1.692,7.596H34.624
		c-0.097-1.536-0.421-2.808-0.972-3.816c-0.552-1.008-1.285-1.8-2.196-2.376c-0.913-0.576-1.957-0.983-3.132-1.224
		c-1.177-0.24-2.46-0.36-3.852-0.36c-0.912,0-1.825,0.097-2.736,0.288c-0.912,0.192-1.74,0.529-2.484,1.008
		c-0.745,0.48-1.357,1.08-1.836,1.8c-0.48,0.72-0.72,1.632-0.72,2.736c0,1.008,0.191,1.825,0.576,2.448
		c0.384,0.624,1.14,1.2,2.268,1.728c1.127,0.529,2.688,1.056,4.68,1.584c1.991,0.529,4.596,1.2,7.812,2.016
		c0.96,0.192,2.292,0.54,3.996,1.044c1.703,0.504,3.396,1.308,5.076,2.412c1.68,1.105,3.132,2.581,4.356,4.428
		c1.224,1.848,1.836,4.212,1.836,7.092c0,2.352-0.457,4.536-1.368,6.552c-0.912,2.017-2.268,3.757-4.068,5.22
		c-1.8,1.465-4.032,2.604-6.696,3.42c-2.664,0.816-5.749,1.225-9.252,1.225c-2.833,0-5.58-0.35-8.244-1.045
		s-5.017-1.787-7.056-3.275c-2.041-1.487-3.661-3.384-4.86-5.688c-1.2-2.305-1.776-5.041-1.728-8.208h10.944
		C14.967,39.93,15.279,41.395,15.903,42.594z"/>
	<path d="M47.798,13.362V3.858h42.12v9.504H74.51v41.904H63.207V13.362H47.798z"/>
	<path d="M132.11,3.858v9.504h-27.145v11.016h24.912v8.784h-24.912v12.6h27.721v9.504H93.662V3.858H132.11z"/>
</g>
</svg>
