<?xml version="1.0" encoding="utf-8"?>
<!-- Generator: Adobe Illustrator 15.1.0, SVG Export Plug-In . SVG Version: 6.00 Build 0)  -->
<!DOCTYPE svg PUBLIC "-//W3C//DTD SVG 1.1//EN" "http://www.w3.org/Graphics/SVG/1.1/DTD/svg11.dtd">
<svg version="1.1" id="Layer_1" xmlns="http://www.w3.org/2000/svg" xmlns:xlink="http://www.w3.org/1999/xlink" x="0px" y="0px"
	 width="54px" height="46px" viewBox="0 0 54 46" enable-background="new 0 0 54 46" xml:space="preserve">
<path d="M53.513,6.555c-1.951,0.866-4.049,1.451-6.248,1.713c2.246-1.347,3.973-3.477,4.783-6.018
	c-2.1,1.246-4.427,2.152-6.906,2.641c-1.986-2.116-4.814-3.437-7.943-3.437c-6.008,0-10.879,4.872-10.879,10.879
	c0,0.854,0.096,1.683,0.281,2.479C17.561,14.359,9.546,10.029,4.178,3.444C3.243,5.054,2.707,6.921,2.707,8.915
	c0,3.773,1.919,7.105,4.837,9.055c-1.782-0.056-3.459-0.548-4.926-1.361v0.138c0,5.27,3.751,9.667,8.726,10.667
	c-0.912,0.247-1.875,0.384-2.866,0.384c-0.7,0-1.383-0.07-2.046-0.198c1.384,4.323,5.401,7.467,10.161,7.558
	c-3.721,2.917-8.411,4.656-13.512,4.656c-0.876,0-1.742-0.054-2.593-0.152c4.814,3.084,10.532,4.886,16.679,4.886
	c20.009,0,30.951-16.574,30.951-30.952c0-0.47-0.012-0.939-0.03-1.409C50.208,10.653,52.051,8.737,53.513,6.555z"/>
<g>
	<path d="M124.601-45.973c2.253,0,4.341,0.719,6.049,1.936h8.212h7.532v-3.066c0-6.068-4.937-11.005-11.005-11.005h-22.026
		c-6.068,0-11.005,4.937-11.005,11.005v3.066h16.194C120.26-45.254,122.347-45.973,124.601-45.973z M133.621-51.42
		c0-0.673,0.55-1.223,1.223-1.223h3.778c0.673,0,1.223,0.55,1.223,1.223v3.778c0,0.673-0.55,1.223-1.223,1.223h-3.778
		c-0.672,0-1.223-0.55-1.223-1.223V-51.42z"/>
	<path d="M135.055-35.52c0,5.765-4.69,10.454-10.454,10.454c-5.765,0-10.454-4.689-10.454-10.454c0-1.587,0.357-3.092,0.993-4.441
		h-12.783v15.064c0,6.068,4.937,11.005,11.005,11.005h22.026c6.068,0,11.005-4.937,11.005-11.005v-15.064h-12.332
		C134.697-38.611,135.055-37.106,135.055-35.52z"/>
</g>
</svg>
