<?xml version="1.0" encoding="utf-8"?>
<!-- Generator: Adobe Illustrator 15.1.0, SVG Export Plug-In . SVG Version: 6.00 Build 0)  -->
<!DOCTYPE svg PUBLIC "-//W3C//DTD SVG 1.1//EN" "http://www.w3.org/Graphics/SVG/1.1/DTD/svg11.dtd">
<svg version="1.1" id="Layer_1" xmlns="http://www.w3.org/2000/svg" xmlns:xlink="http://www.w3.org/1999/xlink" x="0px" y="0px"
	 width="54px" height="46px" viewBox="0 0 54 46" enable-background="new 0 0 54 46" xml:space="preserve">
<path d="M158.348,5.722c-1.951,0.866-4.051,1.451-6.248,1.713c2.246-1.347,3.973-3.477,4.781-6.018
	c-2.1,1.246-4.426,2.152-6.904,2.641c-1.986-2.116-4.814-3.437-7.943-3.437c-6.008,0-10.88,4.872-10.88,10.879
	c0,0.854,0.097,1.683,0.281,2.479c-9.04-0.453-17.056-4.783-22.423-11.368c-0.936,1.61-1.471,3.477-1.471,5.471
	c0,3.773,1.918,7.105,4.836,9.055c-1.781-0.056-3.459-0.548-4.926-1.361v0.138c0,5.27,3.752,9.667,8.727,10.667
	c-0.912,0.247-1.875,0.384-2.866,0.384c-0.7,0-1.383-0.069-2.046-0.198c1.384,4.323,5.4,7.467,10.16,7.559
	c-3.721,2.917-8.41,4.656-13.512,4.656c-0.875,0-1.742-0.055-2.593-0.152c4.813,3.084,10.532,4.886,16.679,4.886
	c20.01,0,30.951-16.573,30.951-30.952c0-0.47-0.012-0.939-0.029-1.409C155.041,9.82,156.885,7.904,158.348,5.722z"/>
<g>
	<path d="M124.602-45.973c2.252,0,4.34,0.719,6.049,1.936h8.211h7.533v-3.066c0-6.068-4.938-11.005-11.006-11.005h-22.025
		c-6.068,0-11.006,4.937-11.006,11.005v3.066h16.194C120.26-45.254,122.348-45.973,124.602-45.973z M133.621-51.42
		c0-0.673,0.55-1.223,1.223-1.223h3.778c0.673,0,1.224,0.55,1.224,1.223v3.778c0,0.673-0.551,1.223-1.224,1.223h-3.778
		c-0.672,0-1.223-0.55-1.223-1.223V-51.42z"/>
	<path d="M135.055-35.52c0,5.765-4.689,10.454-10.453,10.454c-5.766,0-10.455-4.689-10.455-10.454c0-1.587,0.357-3.092,0.994-4.441
		h-12.783v15.064c0,6.068,4.937,11.005,11.004,11.005h22.027c6.067,0,11.004-4.937,11.004-11.005v-15.064h-12.332
		C134.697-38.611,135.055-37.106,135.055-35.52z"/>
</g>
<path fill="#231F20" d="M27,0.304c-12.853,0-23.272,10.418-23.272,23.275c0,10.277,6.666,19,15.916,22.08
	c1.165,0.211,1.589-0.51,1.589-1.125c0-0.551-0.018-2.016-0.032-3.957c-6.473,1.406-7.838-3.119-7.838-3.119
	c-1.059-2.688-2.585-3.402-2.585-3.402c-2.112-1.445,0.161-1.416,0.161-1.416c2.337,0.164,3.566,2.398,3.566,2.398
	c2.074,3.557,5.446,2.525,6.773,1.932c0.209-1.506,0.81-2.525,1.475-3.109c-5.168-0.586-10.601-2.588-10.601-11.503
	c0-2.537,0.908-4.617,2.394-6.242c-0.238-0.59-1.036-2.955,0.23-6.16c0,0,1.952-0.625,6.399,2.387
	c1.856-0.518,3.85-0.776,5.826-0.785c1.977,0.009,3.968,0.267,5.825,0.785c4.446-3.013,6.397-2.387,6.397-2.387
	c1.268,3.205,0.47,5.57,0.229,6.16c1.489,1.625,2.393,3.706,2.393,6.242c0,8.943-5.443,10.91-10.627,11.486
	c0.834,0.719,1.58,2.135,1.58,4.309c0,3.111-0.028,5.619-0.028,6.383c0,0.623,0.421,1.346,1.601,1.117
	c9.238-3.08,15.901-11.799,15.901-22.072C50.272,10.722,39.855,0.304,27,0.304"/>
</svg>
